<svg aria-hidden="true" style="position:absolute;width:0;height:0;overflow:hidden" xmlns="http://www.w3.org/2000/svg">
  <defs>
    <symbol id="icon-close-btn" viewBox="0 0 32 32">
      <path d="M23.884 6.706 16 14.59 8.116 6.706a.995.995 0 0 0-1.38.031 1 1 0 0 0-.031 1.38l7.88 7.884-7.882 7.882a1.002 1.002 0 0 0-.018 1.427.998.998 0 0 0 1.427-.015l7.886-7.882 7.884 7.884a1 1 0 0 0 1.38-.03 1 1 0 0 0 .03-1.38l-7.884-7.884 7.884-7.886a1.002 1.002 0 0 0 .018-1.427.998.998 0 0 0-1.427.015v.002z"/>
    </symbol>
    <symbol id="icon-list-type" viewBox="0 0 32 32">
      <path d="m9.6 24 8-8-8-8 1.6-3.2L22.4 16 11.2 27.2 9.6 24z"/>
    </symbol>
    <symbol id="icon-menu" viewBox="0 0 24 24">
      <path d="M3 13h18a1 1 0 0 0 0-2H3a1 1 0 0 0 0 2zm0-6h18a1 1 0 0 0 0-2H3a1 1 0 0 0 0 2zm0 12h18a1 1 0 0 0 0-2H3a1 1 0 0 0 0 2z"/>
    </symbol>
    <symbol id="icon-apple" viewBox="0 0 22 28">
      <path d="M21.766 18.984c-.391 1.234-1.016 2.547-1.922 3.906-1.344 2.047-2.688 3.063-4.016 3.063-.531 0-1.25-.172-2.188-.5-.922-.344-1.719-.5-2.359-.5-.625 0-1.375.172-2.219.516-.859.359-1.547.531-2.063.531-1.609 0-3.156-1.359-4.703-4.047C.78 19.265-.001 16.656-.001 14.094c0-2.391.594-4.328 1.766-5.844C2.937 6.75 4.406 6 6.203 6c.766 0 1.672.156 2.766.469 1.078.313 1.797.469 2.156.469.453 0 1.203-.172 2.234-.531 1.031-.344 1.937-.531 2.703-.531 1.25 0 2.359.344 3.328 1.016.547.375 1.094.906 1.625 1.563-.812.688-1.406 1.297-1.781 1.844a5.554 5.554 0 0 0-1.016 3.234c0 1.281.359 2.453 1.078 3.484s1.547 1.687 2.469 1.969zM15.891.656c0 .641-.156 1.359-.453 2.125-.313.781-.797 1.5-1.453 2.156-.562.562-1.125.938-1.687 1.125-.359.109-.891.203-1.625.266.031-1.547.438-2.891 1.219-4.016S13.986.421 15.798 0c.031.141.063.25.078.344 0 .109.016.203.016.313z"/>
    </symbol>
    <symbol id="icon-android" viewBox="0 0 22 28">
      <path d="M7.703 7.547a.61.61 0 0 0 0-1.218c-.328 0-.594.281-.594.609s.266.609.594.609zm6.594 0c.328 0 .594-.281.594-.609s-.266-.609-.594-.609a.61.61 0 0 0 0 1.218zM1.609 10.422a1.6 1.6 0 0 1 1.594 1.594v6.719c0 .891-.703 1.609-1.594 1.609S0 19.625 0 18.735v-6.719c0-.875.719-1.594 1.609-1.594zm16.563.297v10.406c0 .953-.766 1.719-1.703 1.719h-1.172v3.547c0 .891-.719 1.609-1.609 1.609s-1.609-.719-1.609-1.609v-3.547H9.923v3.547c0 .891-.719 1.609-1.609 1.609a1.604 1.604 0 0 1-1.594-1.609l-.016-3.547H5.548a1.714 1.714 0 0 1-1.719-1.719V10.719h14.344zm-3.625-6.328c2.188 1.125 3.672 3.281 3.672 5.766H3.766c0-2.484 1.484-4.641 3.687-5.766L6.344 2.344a.228.228 0 0 1 .078-.313c.109-.047.25-.016.313.094L7.86 4.188c.953-.422 2.016-.656 3.141-.656s2.188.234 3.141.656l1.125-2.063c.063-.109.203-.141.313-.094a.228.228 0 0 1 .078.313zM22 12.016v6.719c0 .891-.719 1.609-1.609 1.609a1.604 1.604 0 0 1-1.594-1.609v-6.719a1.59 1.59 0 0 1 1.594-1.594c.891 0 1.609.703 1.609 1.594z"/>
    </symbol>
    <symbol id="icon-facebook" viewBox="0 0 32 32">
      <path d="M22.4 2.666h-4a6.67 6.67 0 0 0-6.667 6.667v4h-4v5.333h4v10.667h5.333V18.666h4l1.333-5.333h-5.333v-4A1.335 1.335 0 0 1 18.4 7.999h4V2.666z"/>
    </symbol>
    <symbol id="icon-twitter" viewBox="0 0 32 32">
      <path d="M30.134 5.599a13.49 13.49 0 0 1-3.882 1.892 5.548 5.548 0 0 0-6.155-1.54 5.545 5.545 0 0 0-3.564 5.249v1.236A13.184 13.184 0 0 1 5.406 6.835S.461 17.962 11.588 22.908a14.397 14.397 0 0 1-8.655 2.473c11.127 6.182 24.727 0 24.727-14.218a5.522 5.522 0 0 0-.099-1.026A9.55 9.55 0 0 0 30.133 5.6z"/>
    </symbol>
    <symbol id="icon-linkedin" viewBox="0 0 32 32">
      <path d="M8.268 28H2.463V9.306h5.805V28zM5.362 6.756C3.506 6.756 2 5.218 2 3.362A3.366 3.366 0 0 1 5.362 0a3.366 3.366 0 0 1 3.362 3.362c0 1.856-1.506 3.394-3.362 3.394zM29.994 28h-5.792v-9.1c0-2.169-.044-4.95-3.018-4.95-3.018 0-3.481 2.356-3.481 4.794V28h-5.799V9.306h5.567v2.55h.081c.775-1.469 2.668-3.019 5.492-3.019 5.875 0 6.955 3.869 6.955 8.894V28h-.005z"/>
    </symbol>
    <symbol id="icon-download" viewBox="0 0 24 32">
      <path d="M14.088 8.425V0H1.509C.673 0 0 .663 0 1.487V30.23c0 .824.673 1.487 1.509 1.487h21.132c.836 0 1.509-.663 1.509-1.487V9.912h-8.553c-.83 0-1.509-.669-1.509-1.487zm4.808 13.093-6.064 5.928a1.085 1.085 0 0 1-1.512 0l-6.064-5.928c-.638-.624-.191-1.695.708-1.695h4.099v-4.956c0-.548.45-.991 1.006-.991h2.013a.999.999 0 0 1 1.006.991v4.956h4.099c.898 0 1.346 1.071.709 1.695zm4.815-15.014L17.554.433a1.52 1.52 0 0 0-1.069-.434h-.384v7.929h8.05V7.55c0-.39-.157-.768-.44-1.047z"/>
    </symbol>
    <symbol id="icon-app-name" viewBox="0 0 32 32">
      <path d="M27.53 8.485c.202.202.316.475.316.761V30c0 .596-.481 1.077-1.077 1.077H5.231A1.075 1.075 0 0 1 4.154 30V2c0-.596.481-1.077 1.077-1.077h14.293c.286 0 .562.114.764.316l7.242 7.246zM25.362 9.74l-6.334-6.334V9.74h6.334zM9.538 14.99c-.071 0-.14.028-.19.079s-.079.119-.079.19v1.615c0 .072.028.14.079.19s.119.079.19.079h12.923c.071 0 .14-.028.19-.079s.079-.119.079-.19v-1.615c0-.071-.028-.14-.079-.19s-.119-.079-.19-.079H9.538zm0 4.577c-.071 0-.14.028-.19.079s-.079.119-.079.19v1.615c0 .071.028.14.079.19s.119.079.19.079h6.192c.071 0 .14-.028.19-.079s.079-.119.079-.19v-1.615c0-.071-.028-.14-.079-.19s-.119-.079-.19-.079H9.538z"/>
    </symbol>
    <symbol id="icon-license" viewBox="0 0 25 32">
      <path d="M7.572 18.876V17h2v1.876c0 .164.02.327.06.486l.8 3.196-1.86 1.24-1.86-1.24.8-3.196c.04-.159.06-.322.06-.486z"/>
      <path d="M15.158 0H4.572a4.003 4.003 0 0 0-4 4v24a4.003 4.003 0 0 0 4 4h16a4.003 4.003 0 0 0 4-4V9.414A2 2 0 0 0 23.986 8L16.572.586A2 2 0 0 0 15.158 0zm.413 7V3l6 6h-4a2 2 0 0 1-2-2zm-8-1V4h-2V2h3v2h2v2h-2v2h2v2h-2v2h2v2h-3v-2h-2v-2h2V8h-2V6h2zm0 9h2a2 2 0 0 1 2 2v1.876l.8 3.198a1.998 1.998 0 0 1-.832 2.148l-1.86 1.24a1.997 1.997 0 0 1-2.218 0l-1.86-1.24a2.005 2.005 0 0 1-.83-2.149l.8-3.198v-1.876a2 2 0 0 1 2-2z"/>
    </symbol>
    <symbol id="icon-author" viewBox="0 0 32 32">
      <path d="M27.576 25.617A15.067 15.067 0 0 0 13.99 1.054 15.065 15.065 0 0 0 .925 16a14.97 14.97 0 0 0 3.501 9.617l-.022.018c.075.09.162.168.239.257.097.111.201.215.302.323.302.327.612.642.937.937.099.09.201.175.302.261.345.297.699.579 1.066.842.047.032.09.074.138.108v-.013a14.969 14.969 0 0 0 17.23 0v.013c.047-.033.089-.075.138-.108.366-.264.721-.545 1.066-.842.1-.086.202-.171.302-.261.325-.296.635-.609.937-.937.1-.108.204-.212.302-.323.076-.089.164-.167.239-.258l-.024-.017zM16 7.385a4.84 4.84 0 0 1 4.477 2.992 4.845 4.845 0 1 1-9.323 1.854A4.843 4.843 0 0 1 16 7.385zM7.392 25.617a5.381 5.381 0 0 1 5.377-5.31h6.462a5.379 5.379 0 0 1 5.377 5.31 12.861 12.861 0 0 1-17.216 0z"/>
    </symbol>
    <symbol id="icon-data" viewBox="0 0 32 32">
      <path d="M30 28.445V6.667a3.114 3.114 0 0 0-3.111-3.111h-3.111V.445h-3.111v3.111h-9.333V.445H8.223v3.111H5.112a3.114 3.114 0 0 0-3.111 3.111v21.778a3.114 3.114 0 0 0 3.111 3.111H26.89a3.114 3.114 0 0 0 3.111-3.111zm-18.667-3.112H8.222v-3.111h3.111v3.111zm0-6.222H8.222V16h3.111v3.111zm6.223 6.222h-3.111v-3.111h3.111v3.111zm0-6.222h-3.111V16h3.111v3.111zm6.222 6.222h-3.111v-3.111h3.111v3.111zm0-6.222h-3.111V16h3.111v3.111zm3.111-7.778H5.111V8.222h21.778v3.111z"/>
    </symbol>
    <symbol id="icon-oc" viewBox="0 0 32 32">
      <path d="M28.929 1.647H3.083A2.88 2.88 0 0 0 .211 4.519V21.75a2.88 2.88 0 0 0 2.872 2.872h10.051v2.872h-2.872v2.872h11.487v-2.872h-2.872v-2.872h10.051A2.88 2.88 0 0 0 31.8 21.75V4.519a2.88 2.88 0 0 0-2.872-2.872zM14.214 18.398h-.001l-6.821-6.82 2.032-2.029 4.79 4.79 8.378-8.38 2.032 2.032-10.41 10.407z"/>
    </symbol>
    <symbol id="icon-language" viewBox="0 0 32 32">
      <path d="M16 31.556c-2.126 0-4.135-.409-6.028-1.226a15.745 15.745 0 0 1-4.958-3.345 15.755 15.755 0 0 1-3.344-4.957A15.049 15.049 0 0 1 .444 16c0-2.152.409-4.167 1.226-6.046a15.824 15.824 0 0 1 3.344-4.939 15.77 15.77 0 0 1 4.958-3.346C11.865.853 13.874.445 16 .445c2.152 0 4.167.408 6.046 1.224a15.846 15.846 0 0 1 4.939 3.346 15.812 15.812 0 0 1 3.344 4.939c.817 1.879 1.226 3.895 1.226 6.046 0 2.126-.409 4.135-1.226 6.028a15.744 15.744 0 0 1-3.344 4.957 15.826 15.826 0 0 1-4.939 3.345c-1.879.817-3.895 1.226-6.046 1.226zm0-3.189c.674-.933 1.257-1.905 1.75-2.917s.894-2.087 1.205-3.228h-5.911c.311 1.141.713 2.217 1.206 3.228s1.076 1.983 1.75 2.917zm-4.044-.622a21.362 21.362 0 0 1-1.224-2.665 22.725 22.725 0 0 1-.876-2.858H5.267a12.904 12.904 0 0 0 2.819 3.383 11.206 11.206 0 0 0 3.87 2.139zm8.089 0a11.202 11.202 0 0 0 3.869-2.139 12.908 12.908 0 0 0 2.82-3.383h-4.589a22.937 22.937 0 0 1-.874 2.858 21.665 21.665 0 0 1-1.226 2.665zm-16.1-8.634h5.289a21.998 21.998 0 0 1-.176-1.537 20.984 20.984 0 0 1 .176-4.685H3.945a13.29 13.29 0 0 0-.292 1.537c-.064.505-.096 1.03-.096 1.574s.032 1.069.096 1.574c.065.506.163 1.018.292 1.537zm8.4 0h7.311c.078-.519.136-1.031.176-1.537.038-.505.057-1.03.057-1.574s-.019-1.069-.057-1.574a21.412 21.412 0 0 0-.176-1.537h-7.311a20.838 20.838 0 0 0 0 6.222zm10.422 0h5.289c.13-.519.227-1.031.293-1.537.064-.505.096-1.03.096-1.574s-.032-1.069-.096-1.574a13.297 13.297 0 0 0-.293-1.537h-5.289a20.838 20.838 0 0 1 0 6.222zm-.622-9.333h4.589a12.908 12.908 0 0 0-2.82-3.383 11.192 11.192 0 0 0-3.869-2.139c.467.856.875 1.743 1.226 2.663.349.921.641 1.874.874 2.859zm-9.1 0h5.911c-.311-1.141-.713-2.217-1.205-3.228s-1.076-1.983-1.75-2.917c-.674.933-1.257 1.906-1.75 2.917s-.895 2.087-1.206 3.228zm-7.778 0h4.589c.233-.985.525-1.938.876-2.859a21.48 21.48 0 0 1 1.224-2.663 11.206 11.206 0 0 0-3.87 2.139 12.924 12.924 0 0 0-2.819 3.383z"/>
    </symbol>
    <symbol id="icon-size" viewBox="0 0 32 32">
      <path d="M29.754 28.067a3.393 3.393 0 0 1-3.388 3.205H5.636a3.392 3.392 0 0 1-3.388-3.205L.929 4.309a3.4 3.4 0 0 1 2.046-3.305c.424-.183.88-.277 1.342-.277h23.371a3.384 3.384 0 0 1 2.465 1.062 3.385 3.385 0 0 1 .923 2.521l-1.32 23.758zm-5.062-17.345c.696-.458.871-1.367.299-1.958-.969-1-2.101-1.826-3.347-2.445a12.938 12.938 0 0 0-5.564-1.347 12.975 12.975 0 0 0-5.609 1.173 12.3 12.3 0 0 0-3.432 2.338c-.591.574-.45 1.487.23 1.967l3.659 2.585c.679.48 1.636.325 2.339-.123a4.898 4.898 0 0 1 2.555-.751l2.879-3.31a.85.85 0 0 1 1.4.178.848.848 0 0 1-.119.935l-2.233 2.567c.302.125.591.281.862.465.687.469 1.638.653 2.333.195l3.749-2.468z"/>
    </symbol>
    <symbol id="icon-downloads" viewBox="0 0 32 32">
      <path d="M13.5 0h5c.831 0 1.5.669 1.5 1.5V12h5.481c1.112 0 1.669 1.344.881 2.131l-9.506 9.513a1.21 1.21 0 0 1-1.706 0l-9.519-9.513C4.844 13.344 5.4 12 6.512 12H12V1.5c0-.831.669-1.5 1.5-1.5zM32 23.5v7c0 .831-.669 1.5-1.5 1.5h-29C.669 32 0 31.331 0 30.5v-7c0-.831.669-1.5 1.5-1.5h9.169l3.062 3.063a3.204 3.204 0 0 0 4.538 0L21.331 22H30.5c.831 0 1.5.669 1.5 1.5zM24.25 29c0-.688-.563-1.25-1.25-1.25s-1.25.563-1.25 1.25c0 .688.563 1.25 1.25 1.25s1.25-.563 1.25-1.25zm4 0c0-.688-.563-1.25-1.25-1.25s-1.25.563-1.25 1.25c0 .688.563 1.25 1.25 1.25s1.25-.563 1.25-1.25z"/>
    </symbol>
  </defs>
</svg>
